#!OML:ASF F:\twosubjects\two\Thursday\Session 1\Rory.ASF
:FULLY-SPECIFIED
:DEGREES
347
root 2.68378 18.3702 -4.59979 -361.317 -40.1172 -356.294
lowerback 9.30463 -1.83276 -5.82253
upperback 2.8257 -3.01213 -0.376674
thorax -1.99006 -1.51867 3.19841
lowerneck -14.5182 2.29654 2.30792
upperneck 12.5602 3.23001 -3.98595
head 6.30223 1.34036 -1.33935
rclavicle -9.98893e-014 -1.2921e-014
rhumerus -27.6645 20.5648 -89.5214
rradius 84.8064
rwrist 2.72987
rhand -25.8697 31.5887
rfingers 7.12502
rthumb 0.671612 1.61
lclavicle -9.98893e-014 -1.2921e-014
lhumerus -34.5886 -39.9377 104.803
lradius 90.8631
lwrist 44.3923
lhand -23.739 53.163
lfingers 7.12502
lthumb 2.72939 83.1252
rfemur -19.1368 0.730961 14.0286
rtibia 37.3689
rfoot -18.6297 -15.6833
rtoes -4.26462
lfemur -17.3741 8.68547 -21.3662
ltibia 22.485
lfoot -9.17243 26.4178
ltoes 21.1407
348
root 2.70729 18.3688 -4.64752 -361.303 -40.6118 -356.373
lowerback 9.14723 -1.72109 -5.75693
upperback 2.75913 -2.84667 -0.295545
thorax -1.98753 -1.43483 3.22473
lowerneck -14.8301 2.088 2.06288
upperneck 13.2416 2.97318 -3.71666
head 6.55656 1.21581 -1.23632
rclavicle -6.43814e-014 5.56597e-015
rhumerus -27.7371 20.2448 -89.5266
rradius 84.1434
rwrist 3.6171
rhand -26.398 32.0163
rfingers 7.12502
rthumb 0.161298 2.03664
lclavicle -6.43814e-014 5.56597e-015
lhumerus -34.7548 -39.6966 104.725
lradius 90.7314
lwrist 44.078
lhand -22.7613 53.9369
lfingers 7.12502
lthumb 3.67364 83.885
rfemur -18.3704 0.244628 14.2296
rtibia 37.5134
rfoot -18.0152 -16.4169
rtoes -7.94938
lfemur -17.3792 8.95316 -21.2047
ltibia 22.3151
lfoot -9.13301 26.6063
ltoes 21.3872
349
root 2.72573 18.3617 -4.69941 -361.252 -41.1131 -356.467
lowerback 8.91625 -1.66144 -5.76865
upperback 2.74675 -2.75322 -0.291319
thorax -1.88103 -1.39128 3.21719
lowerneck -14.9338 1.96833 1.8168
upperneck 13.5355 2.77808 -3.14724
head 6.6503 1.15452 -1.03188
rclavicle 2.94698e-014 4.17448e-015
rhumerus -27.779 20.0577 -89.7136
rradius 83.5644
rwrist 4.44451
rhand -26.9686 32.07
rfingers 7.12502
rthumb -0.389754 2.09061
lclavicle 2.94698e-014 4.17448e-015
lhumerus -34.7459 -39.2371 104.241
lradius 90.6075
lwrist 44.1836
lhand -21.6308 54.8101
lfingers 7.12502
lthumb 4.76526 84.7365
rfemur -17.6264 -0.10913 14.4368
rtibia 37.6713
rfoot -17.966 -17.0255
rtoes -8.84742
lfemur -17.3154 9.42345 -21.0417
ltibia 21.9434
lfoot -8.96666 26.666
ltoes 21.6126
350
root 2.74757 18.3557 -4.75101 -361.419 -41.5076 -356.091
lowerback 8.71464 -1.61924 -6.06606
upperback 2.6233 -2.71353 -0.334298
thorax -1.88911 -1.36809 3.33001
lowerneck -14.6606 1.90505 1.76797
upperneck 13.5412 2.67499 -2.96336
head 6.59938 1.12055 -0.977055
rclavicle -3.31225e-014 -1.98785e-015
rhumerus -28.0746 19.8623 -89.803
rradius 83.1633
rwrist 5.09876
rhand -26.8276 31.9354
rfingers 7.12502
rthumb -0.253571 1.95578
lclavicle -3.31225e-014 -1.98785e-015
lhumerus -34.905 -38.7902 103.942
lradius 90.485
lwrist 44.4526
lhand -20.3436 55.6919
lfingers 7.12502
lthumb 6.00814 85.5867
rfemur -16.9861 -0.606254 14.1863
rtibia 37.8042
rfoot -18.1995 -17.5043
rtoes -8.36109
lfemur -17.3206 9.63049 -21.3031
ltibia 21.4606
lfoot -8.64223 26.9092
ltoes 22.2026
351
root 2.77127 18.3652 -4.80079 -361.816 -41.8517 -355.439
lowerback 8.44919 -1.51625 -6.41328
upperback 2.56503 -2.59188 -0.448598
thorax -1.80397 -1.30873 3.38526
lowerneck -14.6973 1.76937 1.87591
upperneck 13.8138 2.47956 -3.00556
head 6.69023 1.02558 -1.02771
rclavicle 2.43263e-014 -5.06901e-015
rhumerus -28.2765 19.44 -89.6511
rradius 82.7421
rwrist 5.61413
rhand -26.7597 32.2127
rfingers 7.12502
rthumb -0.188012 2.23304
lclavicle 2.43263e-014 -5.06901e-015
lhumerus -35.1839 -38.837 103.741
lradius 90.4958
lwrist 44.3844
lhand -18.5852 53.5736
lfingers 7.12502
lthumb 7.70557 83.4132
rfemur -16.2774 -1.34652 13.6427
rtibia 37.892
rfoot -17.9445 -17.9061
rtoes -9.04685
lfemur -17.2449 9.32311 -21.7144
ltibia 20.9733
lfoot -8.73287 27.4197
ltoes 23.2798
352
root 2.79101 18.3783 -4.85183 -361.664 -42.284 -355.536
lowerback 8.06656 -1.44593 -6.25071
upperback 2.53424 -2.45673 -0.440483
thorax -1.64514 -1.24536 3.27704
lowerneck -14.7022 1.56038 1.37354
upperneck 13.9805 2.17706 -2.22259
head 6.72198 0.920397 -0.723731
rclavicle 6.31141e-014 -1.99779e-014
rhumerus -28.2307 19.1401 -89.5034
rradius 82.1468
rwrist 5.87783
rhand -27.5564 32.7769
rfingers 7.12502
rthumb -0.957495 2.79931
lclavicle 6.31141e-014 -1.99779e-014
lhumerus -35.5851 -38.8316 103.421
lradius 90.6997
lwrist 44.002
lhand -16.8427 52.819
lfingers 7.12502
lthumb 9.38716 82.59
rfemur -15.5989 -1.99388 13.7146
rtibia 37.9507
rfoot -17.9991 -18.0374
rtoes -7.95476
lfemur -17.1781 8.85746 -21.4339
ltibia 20.4378
lfoot -8.90411 28.2022
ltoes 23.4164
353
root 2.8099 18.3724 -4.90332 -361.391 -42.7564 -355.778
lowerback 7.80747 -1.33797 -5.95691
upperback 2.364 -2.27358 -0.355944
thorax -1.7057 -1.14728 3.17945
lowerneck -14.4752 1.2611 0.347481
upperneck 14.128 1.80874 -1.11533
head 6.70317 0.78458 -0.237612
rclavicle 9.29318e-015 -5.06901e-015
rhumerus -28.4883 18.7792 -89.3766
rradius 81.6278
rwrist 6.00696
rhand -28.2986 33.2013
rfingers 7.12502
rthumb -1.6743 3.22809
lclavicle 9.29318e-015 -5.06901e-015
lhumerus -35.9639 -38.571 103.359
lradius 90.6413
lwrist 43.6501
lhand -16.9603 53.5953
lfingers 7.12502
lthumb 9.27362 83.3714
rfemur -14.9635 -2.37682 13.9149
rtibia 37.9693
rfoot -18.0389 -18.2805
rtoes -6.95871
lfemur -17.1436 8.5458 -21.0677
ltibia 19.9012
lfoot -8.76504 29.1946
ltoes 22.6882
354
root 2.82992 18.3641 -4.9481 -361.592 -43.176 -355.444
lowerback 7.53905 -1.13961 -6.07261
upperback 2.24113 -2.00106 -0.282958
thorax -1.70377 -1.00832 3.29124
lowerneck -14.6789 1.02813 -0.226863
upperneck 14.7759 1.58517 -0.897478
head 6.93932 0.658186 -0.0933672
rclavicle -4.75468e-014 2.96189e-014
rhumerus -28.8567 18.2964 -89.0088
rradius 81.1889
rwrist 6.1335
rhand -28.6488 33.2751
rfingers 7.12502
rthumb -2.0125 3.30486
lclavicle -4.75468e-014 2.96189e-014
lhumerus -36.1253 -38.3535 103.557
lradius 90.3473
lwrist 43.2777
lhand -17.2653 55.0526
lfingers 7.12502
lthumb 8.97931 84.8415
rfemur -14.2316 -2.54945 13.5983
rtibia 37.9568
rfoot -17.9026 -18.767
rtoes -7.36341
lfemur -17.0325 8.15223 -21.196
ltibia 19.4439
lfoot -8.78625 30.1472
ltoes 22.7667
355
root 2.85183 18.3684 -4.99332 -361.722 -43.5992 -355.144
lowerback 7.12636 -1.03626 -6.36159
upperback 2.1688 -1.85187 -0.112593
thorax -1.54845 -0.93696 3.60722
lowerneck -14.8367 0.969254 -0.279275
upperneck 15.3161 1.58753 -1.26888
head 7.14527 0.616011 -0.203333
rclavicle 1.86361e-017 9.11925e-015
rhumerus -28.9889 18.211 -88.5916
rradius 80.5425
rwrist 6.13552
rhand -29.0655 33.1236
rfingers 7.12502
rthumb -2.41495 3.15755
lclavicle 1.86361e-017 9.11925e-015
lhumerus -36.2394 -37.7395 103.645
lradius 90.0591
lwrist 42.3422
lhand -19.4161 55.7211
lfingers 7.12502
lthumb 6.90351 85.5885
rfemur -13.5235 -2.64267 13.2752
rtibia 37.946
rfoot -18.2803 -19.1906
rtoes -7.52477
lfemur -16.9287 7.45033 -21.2446
ltibia 18.9443
lfoot -9.2369 31.1706
ltoes 23.6934
356
root 2.87482 18.3692 -5.03825 -361.898 -44.0025 -354.951
lowerback 6.82589 -1.07341 -6.38798
upperback 2.13561 -1.88109 -0.101366
thorax -1.41122 -0.954965 3.6275
lowerneck -14.6786 1.00742 0.104438
upperneck 15.4874 1.62566 -1.67246
head 7.18062 0.617947 -0.394168
rclavicle -8.08681e-014 1.26725e-014
rhumerus -29.0053 18.2496 -88.5186
rradius 79.7539
rwrist 5.93775
rhand -28.9675 33.1664
rfingers 7.12502
rthumb -2.32035 3.19928
lclavicle -8.08681e-014 1.26725e-014
lhumerus -36.4548 -36.8575 103.259
lradius 89.828
lwrist 40.9168
lhand -21.8498 56.526
lfingers 7.12502
lthumb 4.55384 86.4571
rfemur -12.6489 -2.8787 13.003
rtibia 37.8857
rfoot -18.8663 -19.0755
rtoes -5.82138
lfemur -16.6412 6.65374 -21.163
ltibia 18.3862
lfoot -10.1807 32.1495
ltoes 25.5486
357
root 2.89596 18.367 -5.09125 -362.193 -44.4639 -354.674
lowerback 6.6952 -1.03712 -6.3162
upperback 2.09308 -1.82253 -0.224667
thorax -1.39572 -0.924885 3.45212
lowerneck -14.5666 1.03185 0.253511
upperneck 15.6349 1.62295 -1.65596
head 7.2101 0.625803 -0.414008
rclavicle -2.0158e-014 5.71506e-016
rhumerus -29.0185 17.9606 -88.5464
rradius 79.0166
rwrist 5.73037
rhand -28.7557 33.3769
rfingers 7.12502
rthumb -2.11577 3.40765
lclavicle -2.0158e-014 5.71506e-016
lhumerus -36.6354 -36.2122 102.711
lradius 89.5472
lwrist 39.4161
lhand -20.0379 56.5563
lfingers 7.12502
lthumb 6.30326 86.4425
rfemur -11.7468 -2.98957 12.6885
rtibia 37.7716
rfoot -19.0658 -18.7319
rtoes -3.6921
lfemur -16.3718 6.27219 -21.1479
ltibia 17.9012
lfoot -11.0763 32.6906
ltoes 27.5534
358
root 2.91572 18.3643 -5.15419 -362.106 -44.997 -354.671
lowerback 6.37159 -1.00036 -6.03383
upperback 2.04198 -1.73573 -0.348826
thorax -1.29098 -0.882814 3.15113
lowerneck -14.7345 1.06561 0.21564
upperneck 16.0473 1.62876 -1.36783
head 7.37104 0.648402 -0.312238
rclavicle 1.30387e-013 -4.32357e-015
rhumerus -29.0257 17.5499 -88.6959
rradius 78.3324
rwrist 5.72885
rhand -28.9239 33.2719
rfingers 7.12502
rthumb -2.27818 3.30427
lclavicle 1.30387e-013 -4.32357e-015
lhumerus -36.6182 -35.5747 102.019
lradius 89.1631
lwrist 37.9462
lhand -19.2295 56.0799
lfingers 7.12502
lthumb 7.08359 85.9414
rfemur -11.1048 -2.87073 12.6542
rtibia 37.6519
rfoot -18.9058 -18.6683
rtoes -2.81008
lfemur -16.3894 5.89527 -20.8967
ltibia 17.4724
lfoot -11.4903 33.3252
ltoes 28.6347
359
root 2.93811 18.3532 -5.21134 -362.072 -45.4034 -354.63
lowerback 6.00359 -1.09938 -5.62082
upperback 2.03574 -1.8215 -0.592307
thorax -1.10635 -0.929511 2.66389
lowerneck -14.8689 1.20279 0.664883
upperneck 16.4436 1.71842 -1.37919
head 7.52914 0.71384 -0.379257
rclavicle -2.49226e-014 7.95139e-015
rhumerus -29.0366 17.3788 -89.0519
rradius 77.5776
rwrist 5.66292
rhand -28.5793 33.2092
rfingers 7.12502
rthumb -1.94543 3.2383
lclavicle -2.49226e-014 7.95139e-015
lhumerus -36.7053 -34.8187 101.019
lradius 89.0003
lwrist 36.8265
lhand -20.0158 56.3312
lfingers 7.12502
lthumb 6.32452 86.2168
rfemur -10.4339 -2.93662 12.5335
rtibia 37.4814
rfoot -18.5606 -18.628
rtoes -2.14674
lfemur -16.3831 4.90802 -20.6533
ltibia 17.1278
lfoot -12.0545 34.3594
ltoes 29.8204
360
root 2.96108 18.3438 -5.26608 -362.273 -45.7475 -354.317
lowerback 5.73169 -1.1474 -5.30612
upperback 1.95564 -1.85653 -0.854563
thorax -1.05443 -0.945468 2.21357
lowerneck -14.8126 1.22861 0.906629
upperneck 16.7638 1.69582 -1.36368
head 7.62629 0.717118 -0.416561
rclavicle 5.3324e-014 -5.61567e-015
rhumerus -29.178 17.3016 -89.2476
rradius 76.8326
rwrist 5.29485
rhand -28.0128 33.2781
rfingers 7.12502
rthumb -1.39828 3.30293
lclavicle 5.3324e-014 -5.61567e-015
lhumerus -37.0616 -34.193 100.288
lradius 89.0403
lwrist 36.0971
lhand -23.1697 58.1306
lfingers 7.12502
lthumb 3.27924 88.0851
rfemur -9.69724 -3.15478 12.1517
rtibia 37.2151
rfoot -18.2476 -18.5991
rtoes -2.14691
lfemur -16.3843 4.24045 -20.6792
ltibia 16.9243
lfoot -12.7612 34.9059
ltoes 31.8
361
root 2.97941 18.3465 -5.32782 -362.181 -46.2125 -354.295
lowerback 5.249 -1.14662 -4.69731
upperback 1.94971 -1.79713 -1.1093
thorax -0.824601 -0.918891 1.59535
lowerneck -14.81 1.23244 1.1108
upperneck 17.019 1.65952 -1.39132
head 7.71157 0.708124 -0.463249
rclavicle 2.47984e-014 -2.05742e-014
rhumerus -29.1848 17.0765 -89.4184
rradius 76.1736
rwrist 5.15648
rhand -27.7062 32.5289
rfingers 7.12502
rthumb -1.10214 2.55199
lclavicle 2.47984e-014 -2.05742e-014
lhumerus -37.257 -33.536 99.4928
lradius 89.1826
lwrist 35.5034
lhand -18.0988 57.4862
lfingers 7.12502
lthumb 8.17495 87.3081
rfemur -9.00913 -3.03174 12.0683
rtibia 36.8794
rfoot -17.9778 -18.713
rtoes -2.91917
lfemur -16.5181 4.33302 -20.5227
ltibia 16.7329
lfoot -13.4348 34.9626
ltoes 34.1207
